solid OpenSCAD_Model
  facet normal -1 0 0
    outer loop
      vertex -1.5 -1.5 -2
      vertex -1.5 61 11
      vertex -1.5 61 -2
    endloop
  endfacet
  facet normal -1 -0 0
    outer loop
      vertex -1.5 61 11
      vertex -1.5 -1.5 -2
      vertex -1.5 -1.5 11
    endloop
  endfacet
  facet normal 0 0 1
    outer loop
      vertex 78.5 61 11
      vertex 77 59.5 11
      vertex 78.5 -1.5 11
    endloop
  endfacet
  facet normal 0 0 1
    outer loop
      vertex 78.5 61 11
      vertex 0 59.5 11
      vertex 77 59.5 11
    endloop
  endfacet
  facet normal 0 0 1
    outer loop
      vertex 0 59.5 11
      vertex -1.5 61 11
      vertex 0 0 11
    endloop
  endfacet
  facet normal -0 0 1
    outer loop
      vertex -1.5 61 11
      vertex 0 59.5 11
      vertex 78.5 61 11
    endloop
  endfacet
  facet normal -0 0 1
    outer loop
      vertex 77 0 11
      vertex 78.5 -1.5 11
      vertex 77 59.5 11
    endloop
  endfacet
  facet normal -0 0 1
    outer loop
      vertex 0 0 11
      vertex 78.5 -1.5 11
      vertex 77 0 11
    endloop
  endfacet
  facet normal 0 0 1
    outer loop
      vertex 0 0 11
      vertex -1.5 -1.5 11
      vertex 78.5 -1.5 11
    endloop
  endfacet
  facet normal 0 0 1
    outer loop
      vertex -1.5 -1.5 11
      vertex 0 0 11
      vertex -1.5 61 11
    endloop
  endfacet
  facet normal 1 -0 0
    outer loop
      vertex 78.5 -1.5 11
      vertex 78.5 61 -2
      vertex 78.5 61 11
    endloop
  endfacet
  facet normal 1 0 0
    outer loop
      vertex 78.5 61 -2
      vertex 78.5 -1.5 11
      vertex 78.5 -1.5 -2
    endloop
  endfacet
  facet normal 0 0 -1
    outer loop
      vertex -1.5 -1.5 -2
      vertex 78.5 61 -2
      vertex 78.5 -1.5 -2
    endloop
  endfacet
  facet normal -0 0 -1
    outer loop
      vertex 78.5 61 -2
      vertex -1.5 -1.5 -2
      vertex -1.5 61 -2
    endloop
  endfacet
  facet normal 0 -1 0
    outer loop
      vertex -1.5 -1.5 -2
      vertex 78.5 -1.5 11
      vertex -1.5 -1.5 11
    endloop
  endfacet
  facet normal 0 -1 -0
    outer loop
      vertex 78.5 -1.5 11
      vertex -1.5 -1.5 -2
      vertex 78.5 -1.5 -2
    endloop
  endfacet
  facet normal 0 1 -0
    outer loop
      vertex 78.5 61 -2
      vertex -1.5 61 11
      vertex 78.5 61 11
    endloop
  endfacet
  facet normal 0 1 0
    outer loop
      vertex -1.5 61 11
      vertex 78.5 61 -2
      vertex -1.5 61 -2
    endloop
  endfacet
  facet normal 1 -0 0
    outer loop
      vertex 0 0 11
      vertex 0 59.5 0
      vertex 0 59.5 11
    endloop
  endfacet
  facet normal 1 0 0
    outer loop
      vertex 0 59.5 0
      vertex 0 0 11
      vertex 0 0 0
    endloop
  endfacet
  facet normal -1 0 0
    outer loop
      vertex 77 0 0
      vertex 77 59.5 11
      vertex 77 59.5 0
    endloop
  endfacet
  facet normal -1 -0 0
    outer loop
      vertex 77 59.5 11
      vertex 77 0 0
      vertex 77 0 11
    endloop
  endfacet
  facet normal 0 -1 0
    outer loop
      vertex 0 59.5 0
      vertex 77 59.5 11
      vertex 0 59.5 11
    endloop
  endfacet
  facet normal 0 -1 -0
    outer loop
      vertex 77 59.5 11
      vertex 0 59.5 0
      vertex 77 59.5 0
    endloop
  endfacet
  facet normal -0 0 1
    outer loop
      vertex 0 59.5 0
      vertex 77 0 0
      vertex 77 59.5 0
    endloop
  endfacet
  facet normal 0 0 1
    outer loop
      vertex 77 0 0
      vertex 0 59.5 0
      vertex 0 0 0
    endloop
  endfacet
  facet normal 0 1 -0
    outer loop
      vertex 77 0 0
      vertex 0 0 11
      vertex 77 0 11
    endloop
  endfacet
  facet normal 0 1 0
    outer loop
      vertex 0 0 11
      vertex 77 0 0
      vertex 0 0 0
    endloop
  endfacet
endsolid OpenSCAD_Model
