solid OpenSCAD_Model
  facet normal -1 0 0
    outer loop
      vertex 0 0 0
      vertex 0 59.5 2
      vertex 0 59.5 0
    endloop
  endfacet
  facet normal -1 -0 0
    outer loop
      vertex 0 59.5 2
      vertex 0 0 0
      vertex 0 0 2
    endloop
  endfacet
  facet normal 0 0 1
    outer loop
      vertex 77 59.5 2
      vertex 75 57.5 2
      vertex 77 0 2
    endloop
  endfacet
  facet normal 0 0 1
    outer loop
      vertex 77 59.5 2
      vertex 2 57.5 2
      vertex 75 57.5 2
    endloop
  endfacet
  facet normal 0 0 1
    outer loop
      vertex 2 57.5 2
      vertex 0 59.5 2
      vertex 2 2 2
    endloop
  endfacet
  facet normal -0 0 1
    outer loop
      vertex 0 59.5 2
      vertex 2 57.5 2
      vertex 77 59.5 2
    endloop
  endfacet
  facet normal -0 0 1
    outer loop
      vertex 75 2 2
      vertex 77 0 2
      vertex 75 57.5 2
    endloop
  endfacet
  facet normal -0 0 1
    outer loop
      vertex 2 2 2
      vertex 77 0 2
      vertex 75 2 2
    endloop
  endfacet
  facet normal 0 0 1
    outer loop
      vertex 2 2 2
      vertex 0 0 2
      vertex 77 0 2
    endloop
  endfacet
  facet normal 0 0 1
    outer loop
      vertex 0 0 2
      vertex 2 2 2
      vertex 0 59.5 2
    endloop
  endfacet
  facet normal 1 -0 0
    outer loop
      vertex 77 0 2
      vertex 77 59.5 0
      vertex 77 59.5 2
    endloop
  endfacet
  facet normal 1 0 0
    outer loop
      vertex 77 59.5 0
      vertex 77 0 2
      vertex 77 0 0
    endloop
  endfacet
  facet normal 0 1 -0
    outer loop
      vertex 77 59.5 0
      vertex 0 59.5 2
      vertex 77 59.5 2
    endloop
  endfacet
  facet normal 0 1 0
    outer loop
      vertex 0 59.5 2
      vertex 77 59.5 0
      vertex 0 59.5 0
    endloop
  endfacet
  facet normal 0 0 -1
    outer loop
      vertex 77 0 0
      vertex 75 2 0
      vertex 77 59.5 0
    endloop
  endfacet
  facet normal 0 0 -1
    outer loop
      vertex 77 0 0
      vertex 2 2 0
      vertex 75 2 0
    endloop
  endfacet
  facet normal -0 0 -1
    outer loop
      vertex 2 2 0
      vertex 0 0 0
      vertex 2 57.5 0
    endloop
  endfacet
  facet normal 0 0 -1
    outer loop
      vertex 0 0 0
      vertex 2 2 0
      vertex 77 0 0
    endloop
  endfacet
  facet normal 0 0 -1
    outer loop
      vertex 75 57.5 0
      vertex 77 59.5 0
      vertex 75 2 0
    endloop
  endfacet
  facet normal 0 0 -1
    outer loop
      vertex 2 57.5 0
      vertex 77 59.5 0
      vertex 75 57.5 0
    endloop
  endfacet
  facet normal 0 0 -1
    outer loop
      vertex 2 57.5 0
      vertex 0 59.5 0
      vertex 77 59.5 0
    endloop
  endfacet
  facet normal 0 0 -1
    outer loop
      vertex 0 59.5 0
      vertex 2 57.5 0
      vertex 0 0 0
    endloop
  endfacet
  facet normal 0 -1 0
    outer loop
      vertex 0 0 0
      vertex 77 0 2
      vertex 0 0 2
    endloop
  endfacet
  facet normal 0 -1 -0
    outer loop
      vertex 77 0 2
      vertex 0 0 0
      vertex 77 0 0
    endloop
  endfacet
  facet normal 1 -0 0
    outer loop
      vertex 2 2 2
      vertex 2 57.5 0
      vertex 2 57.5 2
    endloop
  endfacet
  facet normal 1 0 0
    outer loop
      vertex 2 57.5 0
      vertex 2 2 2
      vertex 2 2 0
    endloop
  endfacet
  facet normal -1 0 0
    outer loop
      vertex 75 2 0
      vertex 75 57.5 2
      vertex 75 57.5 0
    endloop
  endfacet
  facet normal -1 -0 0
    outer loop
      vertex 75 57.5 2
      vertex 75 2 0
      vertex 75 2 2
    endloop
  endfacet
  facet normal 0 1 -0
    outer loop
      vertex 75 2 0
      vertex 2 2 2
      vertex 75 2 2
    endloop
  endfacet
  facet normal 0 1 0
    outer loop
      vertex 2 2 2
      vertex 75 2 0
      vertex 2 2 0
    endloop
  endfacet
  facet normal 0 -1 0
    outer loop
      vertex 2 57.5 0
      vertex 75 57.5 2
      vertex 2 57.5 2
    endloop
  endfacet
  facet normal 0 -1 -0
    outer loop
      vertex 75 57.5 2
      vertex 2 57.5 0
      vertex 75 57.5 0
    endloop
  endfacet
endsolid OpenSCAD_Model
